<?xml version="1.0" encoding="utf-8"?>
<!-- Generator: Adobe Illustrator 25.0.0, SVG Export Plug-In . SVG Version: 6.00 Build 0)  -->
<svg version="1.1" id="katman_1" xmlns="http://www.w3.org/2000/svg" xmlns:xlink="http://www.w3.org/1999/xlink" x="0px" y="0px"
	 width="700px" height="700px" viewBox="0 0 700 700" style="enable-background:new 0 0 700 700;" xml:space="preserve">
<style type="text/css">
	.st0{fill:#FEDE51;}
	.st1{fill:#494546;}
	.st2{fill:#FECE00;}
</style>
<g>
	<path class="st0" d="M389.7,532.5c4.6-4.6,3.1-9,2.3-13c-3.7-19.3-5.8-38.8-11.7-57.6c-1.3-4-3.9-8.7,2.4-10.9
		c5.2-1.9,9.3,0.1,12.1,4.9c5.7,9.5,9.5,20.2,18.9,30.2c-0.4-12.3-5.8-20.2-10.1-28.6c-2.1-4-8.2-8.5-1.4-13.4
		c5.8-4.2,10.7-1.3,15.3,2.7c18.5,16.3,26.6,36.5,21.8,61c-5.7,29.3-20,55.7-29.9,83.6c-2.3,6.4-7.4,6.2-11.4,2.1
		c-18.9-19.1-41-35.2-54-59.9c-11.6-21.9-11.5-44.2-6.2-67.4c1.4-6.2,5.2-8.6,11.3-8.4c6.9,0.2,7.1,5.2,7.2,10.1
		c0.2,8.2,0.4,16.3,2.7,24.6c5.5-2.4,4.1-6.3,4-9.5c-0.1-5.2-0.8-10.5-0.7-15.7c0.1-4.1-1.1-9.6,4.7-10.8c7-1.4,7.5,5.2,8.6,9.3
		c2.9,10,5.2,20.2,6.8,30.6C384.4,508,384.5,520.2,389.7,532.5z"/>
	<path class="st0" d="M482,393.1c-5.7-6.1-13.1-5.6-20.1-6.4c-4.1-0.4-9.5,0.9-10.7-5c-1.3-6.2,3.5-8.2,8-10.2
		c22.2-9.8,46.3-3.6,60.8,15.5c18.7,24.6,33,52.3,52.1,76.7c3.8,4.9,2.5,8.2-3.6,9c-27.7,3.5-55.4,8-83.3,5.1
		c-25.6-2.7-43-19.4-57.5-39.4c-2.5-3.5-3.5-6.9-0.2-10.6c4-4.5,7-0.8,10.1,1.2c6.5,4.2,12.5,9.5,20.9,11c-3.2-6.3-10-8.9-15.3-13
		c-3.8-3-10-4.7-6.2-12c3.8-7.4,8.8-5.2,14.3-2.8c18.4,7.9,36.8,15.8,55.2,23.7c2.2,1,4.4,3.3,7.8,0.5c-2.5-4.4-7.3-5.7-11.3-7.5
		c-16.3-7.3-32.7-14.3-49.1-21.3c-4-1.7-8.7-3.2-7.8-8.9c1-6.3,5.9-6.4,11-6.5C465.4,391.8,473.5,395.9,482,393.1z"/>
	<path class="st0" d="M220.7,355c7.2,4.3,13.4,1.9,19.3,2.7c3.1,0.4,6.3,0.8,7.2,4.5c0.7,2.9-1.4,4.9-3.4,6.6
		c-2.7,2.1-5.4,5.4-8.4,5.9c-20.1,3.2-40.4,7.3-59.1-5.5c-21.5-14.7-38.4-34-55.4-53.2c-15.5-17.5-15.4-17.4,7.3-23.7
		c20.1-5.5,39.4-13.9,60.4-16.3c12.6-1.4,24.1-0.2,35.1,6.6c11.5,7.1,23.6,13.2,33.7,22.3c2.5,2.3,6.2,4.8,3.3,8.6
		c-2.4,3-5.7,0.2-8.3-0.9c-7.3-3.1-13.3-9.4-22.3-8.7c5.3,6.5,13.2,8.9,20,12.9c4,2.3,7.5,4.4,5.2,10.1c-2.3,5.9-6.2,6.3-11.5,4.8
		c-22.2-6.4-44.2-13.3-67.1-16.6c-3.1-0.4-6.6-3-9.8,1.8c8.3,4.3,17.3,5.4,25.9,7.5c15.2,3.8,30.6,7,45.7,11
		c4.8,1.3,10.7,2.8,9.9,10c-0.9,7.4-6.8,6.6-11.9,7.1C231.6,352.8,226.7,351.5,220.7,355z"/>
	<path class="st0" d="M454.2,349.4c13.2-6.3,27.5-1.2,42.7-8.1c-11.9-3-21-1-30.1-0.3c-6,0.5-15.3,4.7-17.4-2.4
		c-2.1-6.8,8-7.5,13-10.1c16.1-8.4,32.4-16.3,50.7-25.5c-7.7-3.8-12.2-0.2-16.1,1.8c-14.8,7.4-29.3,15.4-44,23
		c-2.6,1.3-5.7,4.1-8.2,1.1c-2.4-2.8,0.5-5.6,2.1-8c4.4-6.7,12.9-10.1,17.1-19.7c-11.7,1.5-14.1,12.8-24.6,17.1
		c3.7-16.9,10.3-29.9,22.3-39.6c12.5-10.1,27.1-15.6,43.2-16.9c22.4-1.8,44.3,1.7,66,6.6c5.3,1.2,9.4,2.8,6,9.6
		c-8.1,16.4-15.2,33.5-26,48.2C528.1,357.4,494.2,365.3,454.2,349.4z"/>
	<path class="st0" d="M303.9,277.2c-10.9-8.4-14.1-21.7-21-32.6c-2.4-3.8-3.3-8.9-10-11.1c0.2,9.1,5.3,14.6,8.6,20.9
		c2.8,5.4,6,10.6,8.9,16c1.6,2.9,4.8,6.7,1.3,9.3c-3.8,2.8-6.1-1.8-8.1-4.2c-13.2-15.6-26.2-31.4-39.4-47.1
		c-2.7-3.1-4.1-7.8-10.8-8.9c3.1,8.3,8.8,13.5,13.5,19.3c10.7,13.2,21.9,26,32.7,39c1.8,2.2,5.1,4.9,1.6,7.7
		c-2.4,1.9-4.7-0.9-6.7-2.5c-6.6-5.3-12.1-12.2-22.5-17.2c4.5,12.7,16.3,15.7,20.8,24.8c-26,4.3-55.2-13.5-63.1-37.8
		c-8.7-26.7-7.5-54.2-8.1-81.5c-0.1-6.3,2.2-8.9,8.8-5.5c15.7,7.8,32.7,11.9,49.2,17.5c33.7,11.4,43.8,25,44,60.3
		c0.1,11.3,0.1,22.6,0.1,33.9C303.7,277.4,303.9,277.2,303.9,277.2z"/>
	<path class="st0" d="M175.9,443.7c26.9-13.7,51.4-31.7,82.1-43.3c-3.6,12.7-13.9,17.7-17.7,28.6c11.3-0.7,12.6-12.1,20.1-15.6
		c2.9,4.8,0.8,8.6-1.5,12.3c-22.1,35.1-50.1,60.4-95.2,57.8c-9.1-0.5-18.3,0.1-27.5,0.3c-5.3,0.1-7.4-2.1-5.2-7.2
		c7.4-17.3,9.9-36.1,16-53.8c10.4-30.2,27.5-41.7,59.4-39.6c13,0.8,25.9,1.3,41.8,2.1c-13.4,9.1-28,7.2-38.8,15.6
		c13.4,0.6,25.9-5.3,39.5-6C225.2,412.1,197.1,422.9,175.9,443.7z"/>
	<path class="st0" d="M259.5,471.7c7.2-3.7,10.8-10.7,15.3-16.8c1.8-2.5,3.3-5.2,5.3-7.4c2.4-2.7,4.3-8.1,8.9-5.2
		c3.6,2.3,0.6,6.4-0.7,9.5c-7.5,17.2-15.1,34.3-22.6,51.5c-2.7,6.2-6.1,12.2-6.4,20.1c5.7-2.5,6.2-7.2,7.8-11
		c9-19.9,17.7-39.8,26.6-59.7c1.2-2.6,1.9-7,5.6-6.1c4.7,1.1,3.1,5.3,2.4,8.7c-2.4,11.3-6.9,22.2-7,35c6.8-1.8,7.3-6.8,8.2-11.2
		c1.2-6,1.8-12.1,3.1-18c0.8-3.6,0.6-8.7,5.6-9.3c5.1-0.6,7.8,3.6,9.6,7.6c6.8,15.1,6.6,30.4,0.7,45.7c-3.8,9.9-9.5,18.7-17.1,26.1
		c-14.6,14.3-29.6,28.3-44.2,42.6c-4.8,4.7-8.5,3.9-11.2-1.7c-12.4-25.6-23.5-51.8-22.9-80.9c0.3-14.7,6.2-27.9,19.1-37
		c7.8-5.5,15.2-11.7,22.9-17.4c3.4-2.5,7.2-7,11.4-3.1c4.8,4.5-1.1,7.6-3.4,10.8C270.4,453,262.3,460.5,259.5,471.7z"/>
	<path class="st0" d="M363.8,219.4c-5.1,12.8-2.8,26.5-7.8,39.3c-9.5-25.3-9.2-52.7-16.6-79.1c-5.3,4.7-2.4,9.1-1.9,13
		c2.8,20.3,6,40.5,8.9,60.7c0.4,2.8,2.3,6.7-1.9,7.8c-3.9,1-4.4-3.3-5.8-5.8c-3.8-6.9-4-15.7-11.9-23.6c0.7,12.7,7.4,21.7,6.1,32
		c-20.8-25.4-33.4-53.3-28.2-87.2c3.8-24.9,17.2-45.4,29-66.7c2.3-4.2,5.5-4.1,8.1-0.3c13.6,20.2,30,38.5,40.8,60.6
		c3.3,6.7,4.9,14,4.5,21.6c-1.1,23-10.4,43.5-19.1,67.2C361.1,244.3,369.9,231.1,363.8,219.4z"/>
	<path class="st0" d="M417.1,290.4c4.3-9.8,15.9-11.5,18.5-22.1c-7.5,0.6-11,5.9-15.5,9.5c-2.9,2.2-6,7.6-9.5,4.6
		c-4-3.4,1.1-7,3.3-9.7c15.2-19,25.2-40.7,34.9-62.7c0.8-1.9,2.1-4-0.2-6.6c-5.2,2.4-6.1,7.9-8.3,12.2
		c-8.6,16.6-15.7,34.1-26.9,49.3c-1.8,2.5-3.6,4.9-5.4,7.4c-2.2,3-4.6,5.5-8.7,3.9c-4.5-1.8-3.1-5.5-2.6-9c0.8-5.3,4.3-10.3,3-16.9
		c-5.8,3-5.7,8.3-7.5,12.4c-1,2.4-1.7,5.3-5.1,5c-3.1-0.3-4-3-4.6-5.6c-4.5-20.8-0.3-39.3,16.2-53.4c15.3-13,31.3-25.1,47-37.6
		c4.1-3.3,8.1-6.6,12.2-9.9c2.6-2,4.3-6.5,8.4-5c3.3,1.2,2.4,5.3,2.8,8.2c2.5,22.5,7.5,44.8,6.9,67.6
		C475.1,267,454,288.3,417.1,290.4z"/>
</g>
<g>
	<path class="st1" d="M303.7,277.4c16.9-6,33.7-10.6,52.2-9.3c57,4.2,104.1,69,87.2,122.2c-11.1,34.7-38.8,51-72.1,59.4
		c-8,2-16.2,3.2-24.6,3c-44.7-1.2-68.9-19-87.7-63.7c-14-33.3,1-77.4,30.9-100.8c4.7-3.7,9.6-7.3,14.4-10.9L303.7,277.4z"/>
	<path class="st2" d="M451.2,475.4c15.1,3.3,27.3,5.9,39.5,8.7c4.3,1,6.1,3.9,6.9,8.3c2.6,14.7,1.7,29.5,2,44.3c0.1,6.2-3,8.7-9,7.9
		c-15.5-1.9-31.1-3.7-46.7-5.6c-5.8-0.7-8.9-2.5-6-9.2c6-14.2,8.8-29.1,8.9-45.4c12.9,12.3,20.5,29.2,36.2,38.5
		C475.1,506.7,461.8,493.9,451.2,475.4z"/>
	<path class="st2" d="M556,378.7c-11.3-9.8-26.8-10.3-40.8-18.5c11-4,19.7-8.6,28.4-13.3c8.1-4.4,16.2-1.6,23.3,3.4
		c7.6,5.3,13.4,12.4,19.6,19.1c9.6,10.3,9.6,10.8-1.5,20.3c-9.3,7.9-19.4,14.8-30.1,20.8c-6,3.4-10.9,3-14.3-3.3
		c-7-12.9-14.1-25.8-27.1-37.5C530.1,370.6,542,379.2,556,378.7z"/>
	<path class="st2" d="M487.6,258c10.5-9.3,21-18.6,31.5-28c-0.7-0.9-1.4-1.8-2.1-2.7c-13.8,7.9-24.1,20.8-39.6,31.9
		c5.1-15.7,8.1-28.6,8.1-42.1c0-5.1,4.2-7.5,8.8-8.1c12.9-1.8,25.8-3.4,38.8-5c6.9-0.8,9.6,2.6,8.7,9.2c-1.5,11.2-3.1,22.4-4.4,33.6
		c-0.7,6.3-3.9,9.3-10.4,8.8C514,254.7,501.2,257.5,487.6,258z"/>
	<path class="st2" d="M136.3,384c12.6,2.1,22.2-2,34-1.7c-9.5,9.1-19.2,16.2-24.4,27.2c-2.1,4.4-6.5,3.9-10.1,1.3
		c-8.8-6.4-17.5-12.9-26.2-19.4c-4-3-3.9-6.3-0.8-10c7.5-9,14.8-18.2,22.3-27.2c5.2-6.3,10.7-6.5,16.8-1
		c6.1,5.5,12.5,10.8,18.7,16.2c1.9,1.6,5.1,2.9,3.6,5.9c-0.8,1.5-3.6,2.3-5.6,2.6C155.8,379.6,146.4,377.9,136.3,384z"/>
	<path class="st2" d="M323,521c0.5,10.3-3.1,20,0.1,31.2c7.9-8.8,2.8-20.2,9.3-29.4c6.3,10.4,12.3,20.4,18.3,30.3
		c2.5,4.2,0.8,7.4-2.3,10.4c-7.2,7-14.3,14-21.4,21c-3.4,3.3-6.8,3.7-10.3,0.2c-7.4-7.4-14.7-14.9-22-22.2c-4.2-4.2-4.3-8.5,0-12.4
		C304.6,540.9,313.3,530.7,323,521z"/>
	<path class="st2" d="M203,260.2c-8.4-2-13.6-8.5-21.1-9c-0.7,0-1.4,0.7-2.7,1.4c5.2,6.7,14.1,8.3,21,15.4
		c-11.6,2.3-21.8,3.3-32,3.7c-5.2,0.2-8.2-2.3-9.7-6.9c-1.5-4.5-3-9.1-4.1-13.8c-6.5-25.7-5.7-26.7,19.5-28.5
		c21.4-1.5,21.4-1.5,26.2,19.4C201.4,247.7,203.6,253.3,203,260.2z"/>
	<path class="st2" d="M211.7,481.5c-4.2,11.2-12.1,16.7-17,27c14.5-3.8,15.9-18.4,26.4-24.5c-1,12.1,0.3,23.2,2.9,34
		c1.5,6.5,0,9.9-7,10.7c-9.9,1.2-19.8,2.8-29.6,4.2c-8.6,1.2-13.2-2.6-13.7-11.3c0-0.9-0.2-1.7-0.2-2.6c0.1-8.6-3.6-18.3,0.5-25.7
		c4.6-8.2,15.5-5.1,23.6-7.3C201.6,485,205.6,483.5,211.7,481.5z"/>
	<path class="st2" d="M404.5,191.6c0.3-10.2,6.1-19.2,4.6-29.5c-8,10.9-8.1,25.1-14.6,36.9c-0.1-10.7-2.4-20.6-6.4-30.2
		c-3-7-1.1-12.8,4.9-17.2c5.6-4.1,11.3-8.1,16.9-12.3c5.5-4,9.4-3,12.5,3.1c15.4,30,18.3,23.9-8.2,44.4
		C411.7,188.9,409.5,191.8,404.5,191.6z"/>
	<path class="st2" d="M297.7,186.3c-7.4-8.2-8.5-18-16-26c-2,11.5,6.2,18.1,7.7,27.5c-4.7,0.1-8.1-2.9-11.8-4.4
		c-20.3-8.7-20.8-9.5-13.4-31c7.8-22.7,4.5-20.8,26.2-13c15.9,5.8,15.9,5.8,12.3,22.1c-0.8,3.8-2,7.6-2.8,11.4
		C299,176.7,298.6,180.6,297.7,186.3z"/>
</g>
</svg>
